<svg xmlns="http://www.w3.org/2000/svg" width="184" height="175" viewBox="0 0 184 175">
	<style type="text/css">
		.st2{stroke:#d9cba0;fill:none;stroke-width:4;stroke-linecap:round;stroke-linejoin:round;}
		.st1{stroke:#d9cba0;fill:none;stroke-width:4;stroke-linejoin:round;}
		.st0{fill:#be914d;}
	</style>
	<path class="st0" d="M0,145C0,161.56 13.43,175 30,175L154,175C170.56,175 184,161.56 184,145L184,30C184,13.43 170.56,0 154,0L30,0C13.43,0 0,13.43 0,30Z"/>
	<path class="st1" d="M128.25,89.84C128.25,110 111.9,126.34 91.75,126.34C71.59,126.34 55.25,110 55.25,89.84L128.25,89.84Z"/>
	<path class="st1" d="M122.81,109.01C124.12,110.54 126.07,111.51 128.25,111.51C132.2,111.51 135.41,108.3 135.41,104.34C135.41,100.39 132.2,97.18 128.25,97.18M128.25,89.84C136.25,89.84 142.75,96.34 142.75,104.34C142.75,112.35 136.25,118.84 128.25,118.84C124.39,118.84 120.89,117.34 118.29,114.89"/>
	<path class="st1" d="M137,126.54L47,126.54C47,130.16 54.87,133.23 75.5,134.32L75.5,136.49C75.5,137.6 76.39,138.49 77.5,138.49L106.5,138.49C107.6,138.49 108.5,137.6 108.5,136.49L108.5,134.32C129.12,133.23 137,130.16 137,126.54Z"/>
	<path class="st2" d="M90.77,84.41C90.77,84.41 81.29,81.48 81.29,71.31C81.29,61.13 92.58,60.02 92.58,50.12C92.58,41.48 85.59,39.2 85.59,39.2"/>
	<path class="st2" d="M99.79,84.41C99.79,84.41 95.06,82.95 95.06,77.88C95.06,72.8 100.7,72.25 100.7,67.31C100.7,63 97.21,61.87 97.21,61.87"/>
</svg>