<svg xmlns="http://www.w3.org/2000/svg" width="184" height="175" viewBox="0 0 184 175">
	<style type="text/css">
		.st2{stroke:#ff9429;fill:none;stroke-width:4;stroke-linecap:round;stroke-linejoin:round;}
		.st1{stroke:#ff9429;fill:none;stroke-width:4;stroke-linejoin:round;}
		.st0{fill:#d0562a;}
	</style>
	<path class="st0" d="M0,145C0,161.56 13.43,175 30,175L154,175C170.56,175 184,161.56 184,145L184,30C184,13.43 170.56,0 154,0L30,0C13.43,0 0,13.43 0,30Z"/>
	<path class="st1" d="M137.21,68.83C131.48,51.21 113.41,38.33 91.99,38.33C70.57,38.33 52.5,51.21 46.78,68.83L137.21,68.83Z"/>
	<path class="st1" d="M137.3,101.76C137.3,102.72 136.48,103.51 135.48,103.51L48.51,103.51C47.5,103.51 46.69,102.72 46.69,101.76L46.69,92.57C46.69,91.61 47.5,90.82 48.51,90.82L135.48,90.82C136.48,90.82 137.3,91.61 137.3,92.57L137.3,101.76Z"/>
	<path class="st1" d="M137.3,121.19C137.3,120.22 136.48,119.44 135.48,119.44L48.51,119.44C47.5,119.44 46.69,120.22 46.69,121.19L46.69,130.37C46.69,130.42 46.7,130.47 46.7,130.51C46.68,130.59 46.66,130.67 46.66,130.75C46.66,133.97 66.95,136.58 91.98,136.58C117.01,136.58 137.3,133.97 137.3,130.75C137.3,130.71 137.28,130.67 137.27,130.62C137.28,130.54 137.3,130.46 137.3,130.37L137.3,121.19Z"/>
	<path class="st1" d="M69.34,54.56C69.34,55.44 68.63,56.15 67.76,56.15C66.88,56.15 66.17,55.44 66.17,54.56C66.17,53.69 66.88,52.98 67.76,52.98C68.63,52.98 69.34,53.69 69.34,54.56Z"/>
	<path class="st1" d="M99.09,49.88C99.09,51.59 97.7,52.98 95.99,52.98C94.29,52.98 92.9,51.59 92.9,49.88C92.9,48.17 94.29,46.78 95.99,46.78C97.7,46.78 99.09,48.17 99.09,49.88Z"/>
	<path class="st1" d="M89.05,60.75C89.05,61.63 88.34,62.34 87.46,62.34C86.59,62.34 85.88,61.63 85.88,60.75C85.88,59.88 86.59,59.17 87.46,59.17C88.34,59.17 89.05,59.88 89.05,60.75Z"/>
	<path class="st1" d="M117.06,57.13C117.06,57.67 116.62,58.11 116.08,58.11C115.54,58.11 115.1,57.67 115.1,57.13C115.1,56.59 115.54,56.15 116.08,56.15C116.62,56.15 117.06,56.59 117.06,57.13Z"/>
	<path class="st2" d="M48.47,111.25L132.99,111.25"/>
	<path class="st1" d="M134.78,77.25C134.79,77.18 134.81,77.1 134.81,77.02L134.81,76.8C134.81,75.8 133.99,74.99 132.99,74.99L48.47,74.99C47.47,74.99 46.66,75.8 46.66,76.8L46.66,77.02C46.66,77.1 46.67,77.18 46.68,77.25C46.68,77.3 46.69,77.34 46.69,77.39C46.69,77.39 46.69,77.39 46.69,77.39C46.99,79.93 49.15,81.91 51.77,81.91C53.87,81.91 55.67,80.65 56.46,78.84L57.31,78.84C58.1,80.65 59.9,81.91 62,81.91C64.1,81.91 65.9,80.65 66.68,78.84L67.97,78.84C68.7,79.76 69.81,80.36 71.08,80.36C72.34,80.36 73.46,79.76 74.18,78.84L75.22,78.84C75.93,81.52 78.37,83.5 81.28,83.5C84.19,83.5 86.63,81.52 87.34,78.84L87.99,78.84C88.78,80.65 90.58,81.91 92.68,81.91C94.78,81.91 96.58,80.65 97.36,78.84L98.08,78.84C98.84,81.13 101,82.78 103.54,82.78C106.09,82.78 108.24,81.13 109,78.84L109.4,78.84C109.97,82.42 113.07,85.16 116.81,85.16C120.55,85.16 123.64,82.42 124.21,78.84L125,78.84C125.79,80.65 127.59,81.91 129.69,81.91C132.32,81.91 134.47,79.93 134.77,77.39L134.77,77.39C134.77,77.34 134.78,77.3 134.78,77.25Z"/>
</svg>