<svg xmlns="http://www.w3.org/2000/svg" width="96" height="96" viewBox="0 0 96 96">
	<style type="text/css">
		.st1{stroke:#ffffff;fill:none;stroke-width:2;stroke-linecap:round;stroke-linejoin:round;}
		.st0{fill:#3cd072;}
	</style>
	<path class="st0" d="M96,48C96,74.51 74.51,96 48,96C21.48,96 0,74.51 0,48C0,21.48 21.48,0 48,0C74.51,0 96,21.48 96,48"/>
	<path class="st1" d="M4.31,44.12L8.71,48.52L8.71,44.81L13.77,49.87"/>
	<path class="st1" d="M91.68,44.12L87.28,48.52L87.28,44.81L82.22,49.87"/>
	<path class="st1" d="M56.36,80.44L39.63,80.44L35.63,84.63L60.36,84.63L56.36,80.44Z"/>
	<path class="st1" d="M39.63,72.19L35.63,72.19L35.63,84.63"/>
	<path class="st1" d="M56.36,72.19L60.36,72.19L60.36,84.63"/>
	<path class="st1" d="M56.36 -23.8L39.63 -23.8L39.63 -15.55L56.36 -15.55Z"/>
	<path class="st1" d="M83.36,68L12.63,68L18.63,72.19L77.36,72.19L83.36,68Z"/>
	<path class="st1" d="M75.36,35.99L83.36,68L12.63,68L21.63,35.99L75.36,35.99Z"/>
	<path class="st1" d="M18.29,47.85L24.49,45.22L29.95,48.25L29.08,54.31L22.21,57.35L16.48,54.31L18.29,47.85Z"/>
	<path class="st1" d="M29.95,48.25L36.29,45.22L42.02,48.25L41.67,54.31L35.07,57.35L29.08,54.31L29.95,48.25Z"/>
	<path class="st1" d="M42.02,48.25L48.09,45.22L54.09,48.25L54.27,54.31L47.93,57.35L41.67,54.31L42.02,48.25Z"/>
	<path class="st1" d="M54.09,48.25L59.9,45.22L66.15,48.25L66.87,54.31L60.79,57.35L54.27,54.31L54.09,48.25Z"/>
	<path class="st1" d="M66.15,48.25L71.7,45.22L78.49,48.38L79.87,53.95L73.65,57.35L66.87,54.31L66.15,48.25Z"/>
	<path class="st1" d="M25.67,40.15L31.74,37.13L36.93,39.91L36.32,45.22L29.95,48.25L24.52,45.21L25.67,40.15Z"/>
	<path class="st1" d="M36.93,39.91L42.73,37.13L48.18,39.91L48.1,45.22L42.02,48.25L36.32,45.22L36.93,39.91Z"/>
	<path class="st1" d="M48.18,39.91L53.71,37.13L59.43,39.91L59.88,45.22L54.09,48.25L48.1,45.22L48.18,39.91Z"/>
	<path class="st1" d="M59.43,39.91L64.7,37.13L70.68,39.91L71.7,45.22L66.15,48.25L59.88,45.22L59.43,39.91Z"/>
	<path class="st1" d="M22.21,57.35L29.08,54.31L35.09,57.35L34.48,63.2L27.35,66.23L21.1,63.2L22.21,57.35Z"/>
	<path class="st1" d="M35.09,57.35L41.67,54.31L47.93,57.35L47.85,63.2L40.99,66.23L34.48,63.2L35.09,57.35Z"/>
	<path class="st1" d="M47.93,57.35L54.27,54.31L60.78,57.35L61.22,63.2L54.63,66.23L47.85,63.2L47.93,57.35Z"/>
	<path class="st1" d="M60.78,57.35L66.87,54.31L73.65,57.35L74.6,63.2L68.27,66.23L61.22,63.2L60.78,57.35Z"/>
	<path class="st1" d="M35.94,24.01L29.28,20.16M41.03,18.91L37.19,12.25M48,9.35L47.99,17.05M58.8,12.25L54.96,18.91M66.71,20.16L60.05,24.01M69.61,30.97L61.92,30.97M34.07,30.97L26.38,30.97M38.46,31.17C38.46,25.87 42.76,21.57 48.06,21.57C53.36,21.57 57.66,25.87 57.66,31.17"/>
</svg>