<svg xmlns="http://www.w3.org/2000/svg" width="96" height="96" viewBox="0 0 96 96">
	<style type="text/css">
		.st2{fill:#3cd072;stroke-linecap:round;stroke-linejoin:round;}
		.st1{stroke:#ffffff;fill:none;stroke-width:2;stroke-linecap:round;stroke-linejoin:round;}
		.st0{fill:#3cd072;}
	</style>
	<path class="st0" d="M96,48C96,74.51 74.51,96 48,96C21.49,96 0,74.51 0,48C0,21.48 21.49,0 48,0C74.51,0 96,21.48 96,48"/>
	<path class="st1" d="M73.36,71.3L22.63,71.3L18.63,75.49L77.36,75.49L73.36,71.3Z"/>
	<path class="st1" d="M22.63,57.05L18.63,61.24L18.63,75.49"/>
	<path class="st1" d="M73.36,57.05L77.36,61.24L77.36,75.49"/>
	<path class="st1" d="M67.21,57.05L73.36,57.05L73.36,71.3L22.63,71.3L22.63,57.05L28.78,57.05"/>
	<path class="st1" d="M5.77,51.66L13.49,50.53L9.77,47.76L18.63,46.47"/>
	<path class="st1" d="M90.22,51.66L82.51,50.53L86.23,47.76L77.36,46.47"/>
	<path class="st1" d="M82.83,19.57L78.29,22.25L81.33,23.03L76.11,26.12"/>
	<path class="st1" d="M19.88,26.12L15.34,23.43L18.38,22.65L13.16,19.57"/>
	<path class="st1" d="M23.5,36.86C23.5,23.33 34.47,12.36 48,12.36C61.53,12.36 72.5,23.33 72.5,36.86"/>
	<path class="st1" d="M72.5,41.86C72.5,55.39 61.53,66.36 48,66.36C34.47,66.36 23.5,55.39 23.5,41.86C23.5,28.33 34.47,17.36 48,17.36C61.53,17.36 72.5,28.33 72.5,41.86Z"/>
	<path class="st1" d="M66.75,41.86C66.75,52.21 58.35,60.61 48,60.61C37.64,60.61 29.25,52.21 29.25,41.86C29.25,31.5 37.64,23.11 48,23.11C58.35,23.11 66.75,31.5 66.75,41.86Z"/>
	<path class="st1" d="M72.5,36.86L72.5,41.86"/>
	<path class="st1" d="M23.5,36.86L23.5,41.86"/>
	<path class="st1" d="M61,41.86C61,39.07 60.11,36.5 58.62,34.38L61.91,30.77L59.08,27.94L55.47,31.24C53.36,29.74 50.78,28.86 48,28.86C45.21,28.86 42.63,29.74 40.52,31.24L36.91,27.94L34.08,30.77L37.37,34.38C35.88,36.5 35,39.07 35,41.86C35,44.65 35.88,47.22 37.37,49.34L34.08,52.94L36.91,55.77L40.52,52.48C42.63,53.97 45.21,54.86 48,54.86C50.78,54.86 53.36,53.97 55.48,52.48L59.08,55.77L61.91,52.94L58.62,49.34C60.11,47.22 61,44.65 61,41.86Z"/>
	<path class="st2" d="M45.02,41.79L42.02,71.3L53.97,71.3L50.97,41.79M50.97,41.79C50.97,43.4 49.64,44.71 48,44.71C46.35,44.71 45.02,43.4 45.02,41.79C45.02,40.17 46.35,38.86 48,38.86C49.64,38.86 50.97,40.17 50.97,41.79"/>
	<path class="st1" d="M50.97,41.79C50.97,43.4 49.64,44.71 48,44.71C46.35,44.71 45.02,43.4 45.02,41.79C45.02,40.17 46.35,38.86 48,38.86C49.64,38.86 50.97,40.17 50.97,41.79Z"/>
	<path class="st1" d="M66.75,34.79L66.75,48.92"/>
	<path class="st1" d="M29.25,34.79L29.25,48.92"/>
</svg>