<svg xmlns="http://www.w3.org/2000/svg" width="72" height="72" viewBox="0 0 72 72">
	<style type="text/css">
		.st0{fill:#000000;}
	</style>
	<path class="st0" d="M36,70C17.25,70 2,54.74 2,36C2,17.25 17.25,2 36,2C54.74,2 70,17.25 70,36C70,54.74 54.74,70 36,70M36,0C16.11,0 0,16.11 0,36C0,55.88 16.11,72 36,72C55.88,72 72,55.88 72,36C72,16.11 55.88,0 36,0"/>
	<path class="st0" d="M58.14,53.21C58.14,53.38 58,53.51 57.84,53.51L14.15,53.51C13.99,53.51 13.85,53.38 13.85,53.21L13.85,38.44C18.18,40.46 23.22,41.86 28.57,42.52L28.57,45.8C28.57,47.11 29.6,48.18 30.87,48.18L41.12,48.18C42.39,48.18 43.42,47.11 43.42,45.8L43.42,42.52C48.77,41.86 53.81,40.46 58.14,38.44ZM59.66,35.98C59.36,35.8 58.99,35.79 58.68,35.95C54.02,38.36 48.37,39.98 42.32,40.64C41.81,40.69 41.42,41.12 41.42,41.63L41.42,45.8C41.42,46.01 41.29,46.18 41.12,46.18L30.87,46.18C30.7,46.18 30.57,46.01 30.57,45.8L30.57,41.63C30.57,41.12 30.18,40.69 29.67,40.64C23.62,39.98 17.97,38.36 13.31,35.95C13,35.79 12.63,35.8 12.33,35.98C12.03,36.16 11.85,36.49 11.85,36.84L11.85,53.21C11.85,54.48 12.88,55.51 14.15,55.51L57.84,55.51C59.11,55.51 60.14,54.48 60.14,53.21L60.14,36.84C60.14,36.49 59.96,36.16 59.66,35.98"/>
	<path class="st0" d="M58.14,30.26C54.17,32.7 49,34.46 43.42,35.29L43.42,33.12C43.42,31.81 42.39,30.75 41.12,30.75L30.87,30.75C29.6,30.75 28.57,31.81 28.57,33.12L28.57,35.29C22.99,34.46 17.82,32.7 13.85,30.26L13.85,24.32C13.85,24.15 13.99,24.01 14.15,24.01L57.84,24.01C58,24.01 58.14,24.15 58.14,24.32ZM57.84,22.01L14.15,22.01C12.88,22.01 11.85,23.05 11.85,24.32L11.85,30.81C11.85,31.15 12.03,31.47 12.31,31.65C16.84,34.56 22.93,36.61 29.44,37.43C29.73,37.46 30.01,37.37 30.23,37.18C30.44,36.99 30.57,36.72 30.57,36.43L30.57,33.12C30.57,32.92 30.71,32.75 30.87,32.75L41.12,32.75C41.28,32.75 41.42,32.92 41.42,33.12L41.42,36.43C41.42,36.72 41.55,36.99 41.76,37.18C41.95,37.35 42.18,37.43 42.42,37.43C42.47,37.43 42.51,37.43 42.55,37.43C49.06,36.61 55.15,34.56 59.68,31.65C59.97,31.47 60.14,31.15 60.14,30.81L60.14,24.32C60.14,23.05 59.11,22.01 57.84,22.01"/>
	<path class="st0" d="M37.54 -35.33L34.45 -35.33L34.45 -29.73L37.54 -29.73ZM38.02,-27.72C38.87,-27.72 39.54,-28.46 39.54,-29.4L39.54,-35.65C39.54,-36.58 38.86,-37.33 38.02,-37.33L33.97,-37.33C33.13,-37.33 32.45,-36.58 32.45,-35.65L32.45,-29.4C32.45,-28.46 33.12,-27.72 33.97,-27.72Z"/>
	<path class="st0" d="M29.95,14.62L42.04,14.62L42.04,20.55L44.04,20.55L44.04,14.3C44.04,13.35 43.37,12.62 42.52,12.62L29.47,12.62C28.62,12.62 27.95,13.35 27.95,14.3L27.95,20.55L29.95,20.55Z"/>
</svg>