<svg xmlns="http://www.w3.org/2000/svg" width="184" height="175" viewBox="0 0 184 175">
	<style type="text/css">
		.st2{stroke:#f46a6a;fill:none;stroke-width:4;stroke-linecap:round;stroke-linejoin:round;}
		.st1{stroke:#f46a6a;fill:none;stroke-width:4;stroke-linejoin:round;}
		.st0{fill:#592c3f;}
	</style>
	<path class="st0" d="M0,145C0,161.56 13.43,175 30,175L154,175C170.56,175 184,161.56 184,145L184,30C184,13.43 170.56,0 154,0L30,0C13.43,0 0,13.43 0,30Z"/>
	<path class="st1" d="M79.38,41.12L79.38,38.46C79.38,37.37 78.5,36.5 77.42,36.5L73.99,36.5L70.57,36.5C69.49,36.5 68.62,37.37 68.62,38.46L68.62,41.12L79.38,41.12Z"/>
	<path class="st1" d="M79.38,66.16L79.38,45.12L68.62,45.12L68.62,66.16C68.62,66.16 58.99,74.38 58.99,82.92L58.99,136.53C58.99,137.62 59.87,138.5 60.95,138.5L73.99,138.5L87.04,138.5C88.12,138.5 88.99,137.62 88.99,136.53L88.99,82.92C88.99,74.38 79.38,66.16 79.38,66.16Z"/>
	<path class="st1" d="M125,89.91C125,103.21 118.73,114 111,114C103.27,114 97,103.21 97,89.91L125,89.91Z"/>
	<path class="st1" d="M111,114L111,138.5"/>
	<path class="st2" d="M103,138.5L119,138.5"/>
</svg>