<svg xmlns="http://www.w3.org/2000/svg" width="184" height="175" viewBox="0 0 184 175">
	<style type="text/css">
		.st2{stroke:#fff8b1;fill:none;stroke-width:4;stroke-linecap:round;stroke-linejoin:round;}
		.st1{stroke:#fff8b1;fill:none;stroke-width:4;stroke-linejoin:round;}
		.st0{fill:#f35361;}
	</style>
	<path class="st0" d="M0,145C0,161.56 13.43,175 30,175L154,175C170.56,175 184,161.56 184,145L184,30C184,13.43 170.56,0 154,0L30,0C13.43,0 0,13.43 0,30Z"/>
	<path class="st1" d="M123.16,108.6L117.47,135.5C117.47,136.53 116.63,137.37 115.6,137.37L68.39,137.37C67.36,137.37 66.52,136.53 66.52,135.5L60.87,108.9"/>
	<path class="st1" d="M97.16,62.29C97.16,65.14 94.85,67.45 92,67.45C89.14,67.45 86.83,65.14 86.83,62.29C86.83,59.43 89.14,57.12 92,57.12C94.85,57.12 97.16,59.43 97.16,62.29Z"/>
	<path class="st2" d="M99,37.33C99,37.33 92,46.33 92,57.12"/>
	<path class="st2" d="M70.11,112.5L73.27,132.33"/>
	<path class="st2" d="M81.05,112.5L82.63,132.33"/>
	<path class="st2" d="M92,112.5L92,132.33"/>
	<path class="st2" d="M102.94,112.5L101.36,132.33"/>
	<path class="st2" d="M113.88,112.5L110.72,132.33"/>
	<path class="st2" d="M118.16,80.83C118,80.83 117.84,80.84 117.68,80.85C116.7,77.73 113.79,75.47 110.36,75.47C108.88,75.47 107.51,75.9 106.34,76.62C102.77,72.76 97.67,70.33 92,70.33C84.3,70.33 77.67,74.77 74.47,81.23C73.87,81.05 73.23,80.95 72.57,80.95C70.07,80.95 67.9,82.33 66.77,84.38C65.8,84.14 64.79,84 63.75,84C56.7,84 51,89.7 51,96.75C51,103.79 56.7,109.5 63.75,109.5C69.33,109.5 74.06,105.9 75.79,100.91C79.31,106.09 85.25,109.5 92,109.5C97.66,109.5 102.74,107.08 106.32,103.24C108.9,107.01 113.24,109.5 118.16,109.5C126.08,109.5 132.5,103.08 132.5,95.16C132.5,87.25 126.08,80.83 118.16,80.83Z"/>
	<path class="st2" d="M68.5,89.91L72.75,94.16"/>
	<path class="st2" d="M85.66,87.5L88,84"/>
	<path class="st2" d="M109.5,88L112.3,89.91"/>
	<path class="st2" d="M93.33,99.33L91.75,101.95"/>
	<path class="st2" d="M97.16,77.5L99,79"/>
	<path class="st2" d="M126.16,92.68L126.83,94.16"/>
	<path class="st2" d="M60.87,95.45L60,97.83"/>
</svg>