<svg xmlns="http://www.w3.org/2000/svg" width="184" height="175" viewBox="0 0 184 175">
	<style type="text/css">
		.st1{stroke:#be914d;fill:none;stroke-width:4;stroke-linejoin:round;}
		.st0{fill:#d9cba0;}
	</style>
	<path class="st0" d="M0,145C0,161.56 13.43,175 30,175L154,175C170.56,175 184,161.56 184,145L184,30C184,13.43 170.56,0 154,0L30,0C13.43,0 0,13.43 0,30Z"/>
	<path class="st1" d="M85.5,60.44C85.5,47.49 78.56,36.99 70,36.99C61.43,36.99 54.5,47.49 54.5,60.44C54.5,71.04 59.15,80 65.54,82.89L65.54,136.01C65.54,137.11 66.43,137.99 67.52,137.99L72.47,137.99C73.56,137.99 74.45,137.11 74.45,136.01L74.45,82.89C80.84,80 85.5,71.04 85.5,60.44Z"/>
	<path class="st1" d="M124.54,37L122.33,37L122.33,65.86C122.33,66.87 121.43,67.69 120.33,67.69C119.22,67.69 118.33,66.87 118.33,65.86L117.33,37L112.66,37L111.66,65.86C111.66,66.87 110.77,67.69 109.66,67.69C108.56,67.69 107.66,66.87 107.66,65.86L107.66,37L105.45,37C104.37,37 103.49,37.84 103.49,38.88L100.49,75.77C100.49,80.34 110.49,82.62 110.49,82.62L110.49,136.01C110.49,137.11 111.39,138 112.49,138L117.49,138C118.6,138 119.49,137.11 119.49,136.01L119.49,82.62C119.49,82.62 129.49,80.34 129.49,75.77L126.49,38.88C126.49,37.84 125.62,37 124.54,37Z"/>
</svg>