<svg xmlns="http://www.w3.org/2000/svg" width="184" height="175" viewBox="0 0 184 175">
	<style type="text/css">
		.st1{stroke:#15c4e8;fill:none;stroke-width:4;stroke-linejoin:round;}
		.st0{fill:#50748a;}
	</style>
	<path class="st0" d="M0,145C0,161.56 13.43,175 30,175L154,175C170.56,175 184,161.56 184,145L184,30C184,13.43 170.56,0 154,0L30,0C13.43,0 0,13.43 0,30Z"/>
	<path class="st1" d="M130,135.5C130,136.6 129.1,137.5 128,137.5L56,137.5C54.89,137.5 54,136.6 54,135.5L54,39.5C54,38.39 54.89,37.5 56,37.5L128,37.5C129.1,37.5 130,38.39 130,39.5L130,135.5Z"/>
	<path class="st1" d="M117,73.5C117,87.3 105.8,98.5 92,98.5C78.19,98.5 67,87.3 67,73.5C67,59.69 78.19,48.5 92,48.5C105.8,48.5 117,59.69 117,73.5Z"/>
	<path class="st1" d="M102,73.5C102,79.02 97.52,83.5 92,83.5C86.47,83.5 82,79.02 82,73.5C82,67.97 86.47,63.5 92,63.5C97.52,63.5 102,67.97 102,73.5Z"/>
	<path class="st1" d="M102,116.5C102,122.02 97.52,126.5 92,126.5C86.47,126.5 82,122.02 82,116.5C82,110.97 86.47,106.5 92,106.5C97.52,106.5 102,110.97 102,116.5Z"/>
	<path class="st1" d="M95,116.5C95,118.15 93.65,119.5 92,119.5C90.34,119.5 89,118.15 89,116.5C89,114.84 90.34,113.5 92,113.5C93.65,113.5 95,114.84 95,116.5Z"/>
</svg>