<svg xmlns="http://www.w3.org/2000/svg" width="1053" height="1053" viewBox="0 0 1053 1053">
	<style type="text/css">
		.st0{fill:#3cd072;}
	</style>
	<path class="st0" d="M254.5,29C194.26,29 137.63,52.45 95.04,95.04C52.45,137.63 29,194.26 29,254.5L29,798.5C29,858.73 52.45,915.36 95.04,957.95C137.63,1000.54 194.26,1024 254.5,1024L798.5,1024C858.73,1024 915.36,1000.54 957.95,957.95C1000.54,915.36 1024,858.73 1024,798.5L1024,254.5C1024,194.26 1000.54,137.63 957.95,95.04C915.36,52.45 858.73,29 798.5,29ZM798.5,1053L254.5,1053C186.52,1053 122.61,1026.52 74.54,978.45C26.47,930.39 0,866.47 0,798.5L0,254.5C0,186.52 26.47,122.61 74.54,74.54C122.61,26.47 186.52,0 254.5,0L798.5,0C866.47,0 930.39,26.47 978.45,74.54C1026.52,122.61 1053,186.52 1053,254.5L1053,798.5C1053,866.47 1026.52,930.39 978.45,978.45C930.39,1026.52 866.47,1053 798.5,1053"/>
	<path class="st0" d="M526.53,598.2C412.97,598.2 320.58,505.81 320.58,392.25C320.58,278.68 412.97,186.3 526.53,186.3C640.09,186.3 732.48,278.68 732.48,392.25C732.48,505.81 640.09,598.2 526.53,598.2M526.53,154.3C462.97,154.3 403.22,179.05 358.27,223.99C313.33,268.93 288.58,328.69 288.58,392.25C288.58,455.81 313.33,515.56 358.27,560.51C403.22,605.45 462.97,630.2 526.53,630.2C590.09,630.2 649.84,605.45 694.79,560.51C739.73,515.56 764.48,455.81 764.48,392.25C764.48,328.69 739.73,268.93 694.79,223.99C649.84,179.05 590.09,154.3 526.53,154.3M629.68,378.32C632.12,384.36 630.66,391.27 625.99,395.81L475.24,542.16C472.13,545.18 468.11,546.68 464.1,546.68C459.92,546.68 455.75,545.05 452.62,541.82C448.26,537.34 447.08,530.97 448.99,525.44C449.18,524.82 449.4,524.2 449.67,523.59L493.68,424.97C497.28,416.9 506.74,413.28 514.81,416.88C522.88,420.48 526.5,429.94 522.9,438.01L512.45,461.44L575.43,400.29L446.33,400.18C439.74,400.17 433.82,396.12 431.43,389.98C429.04,383.84 430.66,376.85 435.52,372.39L576.32,243C581.9,237.86 590.33,237.36 596.49,241.79C602.65,246.22 604.85,254.37 601.75,261.3L564.88,343.95C561.27,352.02 551.81,355.64 543.74,352.04C535.68,348.44 532.05,338.98 535.65,330.91L541.01,318.91L487.36,368.21L614.86,368.33C621.37,368.34 627.23,372.29 629.68,378.32M776.06,543.09C727.77,633.3 572.77,860.08 526.5,927.33C480.22,860.08 325.22,633.3 276.93,543.09C251.99,496.52 239.35,448.69 239.35,400.92C239.35,324.18 269.23,252.02 323.5,197.74C377.76,143.46 449.91,113.56 526.64,113.56C526.93,113.56 527.21,113.55 527.49,113.54C603.8,113.83 675.5,143.7 729.49,197.7C783.76,251.98 813.64,324.13 813.64,400.87C813.64,448.67 801,496.52 776.06,543.09M752.12,175.08C691.81,114.76 611.63,81.54 526.35,81.54C526.04,81.54 525.73,81.55 525.42,81.56C440.59,81.88 360.89,115.07 300.87,175.12C240.56,235.44 207.35,315.63 207.35,400.92C207.35,454.01 221.27,506.93 248.71,558.19C306.31,665.76 504.92,952.46 513.34,964.61C516.33,968.92 521.25,971.5 526.49,971.5L526.5,971.5C531.74,971.5 536.66,968.92 539.65,964.61C548.07,952.46 746.68,665.76 804.28,558.19C831.72,506.93 845.64,454 845.64,400.87C845.64,315.58 812.43,235.39 752.12,175.08"/>
</svg>