<svg xmlns="http://www.w3.org/2000/svg" width="96" height="96" viewBox="0 0 96 96">
	<style type="text/css">
		.st2{stroke:#ffffff;fill:none;stroke-width:2;}
		.st1{stroke:#ffffff;fill:none;stroke-width:2;stroke-linecap:round;stroke-linejoin:round;}
		.st0{fill:#3cd072;}
	</style>
	<path class="st0" d="M96,48C96,74.51 74.51,96 48,96C21.49,96 0,74.51 0,48C0,21.48 21.49,0 48,0C74.51,0 96,21.48 96,48"/>
	<path class="st1" d="M80.16 -24.69L15.44 -24.69L15.44 -20.5L80.16 -20.5Z"/>
	<path class="st1" d="M15.44,59.4L15.44,71.3L80.16,71.3L80.16,57.05L72.18,57.05"/>
	<path class="st1" d="M8,44.79L12.88,44.79"/>
	<path class="st1" d="M52.33,44.79L49.33,71.3L61.28,71.3L58.28,44.79"/>
	<path class="st1" d="M58.28,44.79C58.28,46.4 56.95,47.71 55.31,47.71C53.66,47.71 52.33,46.4 52.33,44.79C52.33,43.17 53.66,41.86 55.31,41.86C56.95,41.86 58.28,43.17 58.28,44.79Z"/>
	<path class="st1" d="M35.81,39.21L18.55,39.21C15.42,39.21 12.88,41.7 12.88,44.78C12.88,47.86 15.42,50.36 18.55,50.36L47.18,50.36L47.18,54.77L18.15,54.77C12.54,54.77 8,50.3 8,44.78C8,39.27 12.54,34.79 18.15,34.79L37.72,34.79"/>
	<path class="st1" d="M47.18,55.36L47.18,59.77L18.15,59.77C12.54,59.77 8,55.3 8,49.78L8,44.35"/>
	<path class="st1" d="M35,44.06L18.55,44.06C16.45,44.06 14.62,45.18 13.64,46.85"/>
	<path class="st1" d="M55.31,44.79L79.01,21.46"/>
	<path class="st0" d="M76.05,30.2L76.05,23.42C76.05,21.81 77.38,20.5 79.02,20.5C80.66,20.5 82,21.81 82,23.42L82,30.2M76.05,30.2C76.05,31.81 77.38,33.13 79.02,33.13C80.66,33.13 82,31.81 82,30.2C82,28.58 80.66,27.27 79.02,27.27C77.38,27.27 76.05,28.58 76.05,30.2"/>
	<path class="st2" d="M76.05,30.2C76.05,31.81 77.38,33.13 79.02,33.13C80.66,33.13 82,31.81 82,30.2C82,28.58 80.66,27.27 79.02,27.27C77.38,27.27 76.05,28.58 76.05,30.2Z"/>
	<path class="st1" d="M50.14,64.11C47.03,63.31 44.22,61.8 41.88,59.77"/>
	<path class="st1" d="M75.61,44.79L75.61,40.79C75.61,29.75 66.52,20.81 55.31,20.81C44.09,20.81 35,29.75 35,40.79L35,44.06"/>
	<path class="st1" d="M35.8,50.36C35.28,48.59 35,46.72 35,44.79C35,33.75 44.09,24.81 55.31,24.81C66.52,24.81 75.61,33.75 75.61,44.79C75.61,54.06 69.18,61.86 60.47,64.11"/>
	<path class="st1" d="M24.07,18.11L29.58,23.63L29.58,18.99L35.92,25.33"/>
	<path class="st1" d="M42.9,9.87L44.39,15.11L45.97,12.28L47.69,18.31"/>
</svg>