<svg xmlns="http://www.w3.org/2000/svg" width="184" height="175" viewBox="0 0 184 175">
	<style type="text/css">
		.st1{stroke:#005d61;fill:none;stroke-width:4;stroke-linecap:round;stroke-linejoin:round;}
		.st0{fill:#84cca1;}
	</style>
	<path class="st0" d="M0,145C0,161.56 13.43,175 30,175L154,175C170.56,175 184,161.56 184,145L184,30C184,13.43 170.56,0 154,0L30,0C13.43,0 0,13.43 0,30Z"/>
	<path class="st1" d="M125.57,71.08L125.57,135.54C125.57,136.79 124.57,137.79 123.32,137.79L60.64,137.79C59.4,137.79 58.39,136.79 58.39,135.54L58.39,71.08"/>
	<path class="st1" d="M47.4,81.78L91.98,37.2L136.59,81.81"/>
	<path class="st1" d="M97.78,59.5C97.78,62.7 95.19,65.29 92,65.29C88.8,65.29 86.21,62.7 86.21,59.5C86.21,56.31 88.8,53.71 92,53.71C95.19,53.71 97.78,56.31 97.78,59.5Z"/>
	<path class="st1" d="M104.75,110.91C104.75,112.15 103.74,113.16 102.49,113.16L81.47,113.16C80.22,113.16 79.22,112.15 79.22,110.91L79.22,89.88C79.22,88.64 80.22,87.63 81.47,87.63L102.49,87.63C103.74,87.63 104.75,88.64 104.75,89.88L104.75,110.91Z"/>
	<path class="st1" d="M58.39,76.71L125.57,76.71"/>
	<path class="st1" d="M58.39,125.73L125.57,125.73"/>
	<path class="st1" d="M91.98,87.63L91.98,113.16"/>
	<path class="st1" d="M79.22,100.4L104.75,100.4"/>
	<path class="st1" d="M107.91,53.12L107.91,41.7L115.82,41.7L115.82,61.04"/>
</svg>