<svg xmlns="http://www.w3.org/2000/svg" width="96" height="96" viewBox="0 0 96 96">
	<style type="text/css">
		.st2{fill:#3cd072;stroke-linecap:round;stroke-linejoin:round;}
		.st1{stroke:#ffffff;fill:none;stroke-width:2;stroke-linecap:round;stroke-linejoin:round;}
		.st3{stroke:#ffffff;fill:none;stroke-width:2;}
		.st0{fill:#3cd072;}
	</style>
	<path class="st0" d="M96,48C96,74.51 74.51,96 48,96C21.48,96 0,74.51 0,48C0,21.48 21.48,0 48,0C74.51,0 96,21.48 96,48"/>
	<path class="st1" d="M37.94,53.07C37.94,55.27 39.73,57.07 41.94,57.07L54.14,57.07C56.35,57.07 58.14,55.27 58.14,53.07L58.14,40.86C58.14,38.65 56.35,36.86 54.14,36.86L41.94,36.86C39.73,36.86 37.94,38.65 37.94,40.86L37.94,53.07Z"/>
	<path class="st1" d="M38.64,55.33C39.85,57.11 42.32,60.45 43.94,60.45L52.14,60.45C53.73,60.45 56.15,57.23 57.37,55.43"/>
	<path class="st2" d="M45.27,94.08L46.13,48.9C46.13,47.89 46.95,47.08 47.96,47.08C48.97,47.08 49.78,47.89 49.78,48.9L50.92,94.08M51.14,58.06C45.21,48.78 48.11,47.18 48.11,47.18C48.11,47.18 50.77,45.22 56.71,54.49C62.64,63.76 69.58,80.75 69.58,80.75C69.58,80.75 57.07,67.32 51.14,58.06"/>
	<path class="st1" d="M51.14,58.06C45.21,48.78 48.11,47.18 48.11,47.18C48.11,47.18 50.77,45.22 56.71,54.49C62.64,63.76 69.58,80.75 69.58,80.75C69.58,80.75 57.07,67.32 51.14,58.06Z"/>
	<path class="st2" d="M55.96,38.9C50.89,48.67 48.04,46.96 48.04,46.96C48.04,46.96 45,45.63 50.08,35.85C55.13,26.07 66.37,11.56 66.37,11.56C66.37,11.56 61.02,29.12 55.96,38.9"/>
	<path class="st1" d="M55.96,38.9C50.89,48.67 48.04,46.96 48.04,46.96C48.04,46.96 45,45.63 50.08,35.85C55.13,26.07 66.37,11.56 66.37,11.56C66.37,11.56 61.02,29.12 55.96,38.9Z"/>
	<path class="st2" d="M37.24,50.88C48.23,50.37 47.86,47.08 47.86,47.08C47.86,47.08 47.92,43.76 36.94,44.26C25.93,44.75 8.04,48.88 8.04,48.88C8.04,48.88 26.24,51.37 37.24,50.88"/>
	<path class="st1" d="M37.24,50.88C48.23,50.37 47.86,47.08 47.86,47.08C47.86,47.08 47.92,43.76 36.94,44.26C25.93,44.75 8.04,48.88 8.04,48.88C8.04,48.88 26.24,51.37 37.24,50.88Z"/>
	<path class="st2" d="M43.34,49.97C41.7,47.42 42.45,44.04 45,42.4C47.56,40.77 50.93,41.51 52.57,44.07C54.2,46.62 53.46,50 50.91,51.63C48.35,53.27 44.97,52.52 43.34,49.97"/>
	<path class="st3" d="M43.34,49.97C41.7,47.42 42.45,44.04 45,42.4C47.56,40.77 50.93,41.51 52.57,44.07C54.2,46.62 53.46,50 50.91,51.63C48.35,53.27 44.97,52.52 43.34,49.97Z"/>
	<path class="st0" d="M46.42,48C45.87,47.15 46.12,46.02 46.97,45.48C47.82,44.93 48.95,45.18 49.49,46.03C50.04,46.89 49.79,48.01 48.94,48.56C48.09,49.1 46.96,48.85 46.42,48"/>
	<path class="st3" d="M46.42,48C45.87,47.15 46.12,46.02 46.97,45.48C47.82,44.93 48.95,45.18 49.49,46.03C50.04,46.89 49.79,48.01 48.94,48.56C48.09,49.1 46.96,48.85 46.42,48Z"/>
	<path class="st1" d="M39.64,19L54.64,19"/>
	<path class="st1" d="M33.64,19L33.49,19"/>
	<path class="st1" d="M6.28,39.75L15.12,39.75"/>
	<path class="st1" d="M84.5,62.62L67.62,62.62"/>
	<path class="st1" d="M69.04,46.07L79.67,36.32L67.79,36.31L77.72,26.61L69.04,46.07Z"/>
</svg>