<svg xmlns="http://www.w3.org/2000/svg" width="184" height="175" viewBox="0 0 184 175">
	<style type="text/css">
		.st1{stroke:#84cca1;fill:none;stroke-width:4;stroke-linejoin:round;}
		.st0{fill:#005d61;}
	</style>
	<path class="st0" d="M0,145C0,161.56 13.43,175 30,175L154,175C170.56,175 184,161.56 184,145L184,30C184,13.43 170.56,0 154,0L30,0C13.43,0 0,13.43 0,30Z"/>
	<path class="st1" d="M127.47 -90.5L117.01 -90.5L117.01 -65.83L127.47 -65.83ZM127.47,-65.83M116.8,-96.66L129.56,-96.66C131.87,-96.66 133.75,-94.82 133.75,-92.55L133.75,-63.77C133.75,-61.5 131.87,-59.66 129.56,-59.66L116.75,-59.66"/>
	<path class="st1" d="M67,77.57L67,130.47C67.31,130.42 67.62,130.39 67.94,130.39C71.81,130.39 74.94,133.53 74.94,137.39C74.94,137.77 74.91,138.14 74.85,138.49L109.14,138.49C109.08,138.14 109.05,137.77 109.05,137.39C109.05,133.53 112.18,130.39 116.05,130.39C116.37,130.39 116.68,130.42 117,130.47L117,77.48"/>
	<path class="st1" d="M112.62,51.66C111.33,51.66 110.09,51.85 108.9,52.19C107.48,43.3 99.79,36.49 90.5,36.49C81.92,36.49 74.71,42.29 72.52,50.17C72.49,50.17 72.45,50.16 72.41,50.16C64.73,50.16 58.5,56.39 58.5,64.08C58.5,71.76 64.73,77.99 72.41,77.99C76.95,77.99 80.96,75.82 83.5,72.46C83.72,72.55 83.94,72.62 84.16,72.7L84.16,85.66C84.16,87.87 85.95,89.66 88.16,89.66L88.33,89.66C90.54,89.66 92.33,87.87 92.33,85.66L92.33,73.74C95.23,73.45 97.92,72.49 100.28,71.04C102.45,75.68 107.15,78.91 112.62,78.91C120.15,78.91 126.25,72.81 126.25,65.29C126.25,57.76 120.15,51.66 112.62,51.66Z"/>
	<path class="st1" d="M117,115.19L112.34,115.19C111.06,115.19 110.02,116.23 110.02,117.52L110.02,122.17C110.02,123.45 111.06,124.5 112.34,124.5L117,124.5M104.2,117.52C104.2,116.23 103.16,115.19 101.88,115.19L97.23,115.19C95.94,115.19 94.9,116.23 94.9,117.52L94.9,122.17C94.9,123.45 95.94,124.5 97.23,124.5L101.88,124.5C103.16,124.5 104.2,123.45 104.2,122.17L104.2,117.52ZM89.09,117.52C89.09,116.23 88.05,115.19 86.76,115.19L82.11,115.19C80.83,115.19 79.79,116.23 79.79,117.52L79.79,122.17C79.79,123.45 80.83,124.5 82.11,124.5L86.76,124.5C88.05,124.5 89.09,123.45 89.09,122.17L89.09,117.52ZM67,115.19L71.65,115.19C72.93,115.19 73.97,116.23 73.97,117.52L73.97,122.17C73.97,123.45 72.93,124.5 71.65,124.5L67,124.5"/>
</svg>