<svg xmlns="http://www.w3.org/2000/svg" width="184" height="175" viewBox="0 0 184 175">
	<style type="text/css">
		.st1{stroke:#fff8b1;fill:none;stroke-width:4;stroke-linecap:round;stroke-linejoin:round;}
		.st0{fill:#5c7a84;}
	</style>
	<path class="st0" d="M0,145C0,161.56 13.43,175 30,175L154,175C170.56,175 184,161.56 184,145L184,30C184,13.43 170.56,0 154,0L30,0C13.43,0 0,13.43 0,30Z"/>
	<path class="st1" d="M115.14,106.48C115.14,107.44 114.36,108.22 113.4,108.22L54.06,108.22C53.1,108.22 52.32,107.44 52.32,106.48L41.87,68.51C41.87,67.55 42.65,66.77 43.61,66.77L117.75,66.77C118.71,66.77 119.5,67.55 119.5,68.51L115.14,106.48Z"/>
	<path class="st1" d="M68.67,131.7C68.67,135.02 65.98,137.7 62.67,137.7C59.35,137.7 56.67,135.02 56.67,131.7C56.67,128.39 59.35,125.7 62.67,125.7C65.98,125.7 68.67,128.39 68.67,131.7Z"/>
	<path class="st1" d="M111.33,131.7C111.33,135.02 108.64,137.7 105.33,137.7C102.01,137.7 99.33,135.02 99.33,131.7C99.33,128.39 102.01,125.7 105.33,125.7C108.64,125.7 111.33,128.39 111.33,131.7Z"/>
	<path class="st1" d="M68.67,131.7L99.33,131.7"/>
	<path class="st1" d="M111.33,131.7L118.33,131.7L127.66,52.83C127.66,52.83 127.78,48.54 131.21,45.15C133.44,42.94 137.08,41.12 143,41.12"/>
	<path class="st1" d="M50,72.05L58.5,102.94"/>
	<path class="st1" d="M65.5,72.05L70.97,102.94"/>
	<path class="st1" d="M81,72.05L83.44,102.94"/>
	<path class="st1" d="M96.5,72.05L95.92,102.94"/>
	<path class="st1" d="M112,72.05L108.39,102.94"/>
</svg>