<svg xmlns="http://www.w3.org/2000/svg"
 xmlns:xlink="http://www.w3.org/1999/xlink"
 width="34px" height="37px"  viewBox="0 0 34 37">
<path fill-rule="evenodd"  fill="#ffffff"
 d="M27.225555,19.069855 C27.182709,14.768768 30.907532,12.702423 31.0755,12.602356 C28.980896,9.681244 25.72107,9.281342 24.559448,9.232849 C21.783752,8.965485 19.144379,10.791168 17.737518,10.791168 C16.33139,10.791168 14.157654,9.273712 11.857697,9.314941 C8.8315735,9.356598 6.044388,10.9913025 4.4844666,13.5729065 C1.3437805,18.773865 3.6819153,26.4758 6.743622,30.693634 C8.24054,32.7554 10.0242,35.076477 12.368622,34.99283 C14.625885,34.908813 15.479004,33.602173 18.205841,33.602173 C20.93335,33.602173 21.701294,34.99283 24.087555,34.949677 C26.516388,34.908813 28.054657,32.847076 29.540894,30.777283 C31.25943,28.382477 31.966156,26.06369 32.008728,25.944519 C31.955566,25.9216 M22.741089,6.4430847 C23.986176,5.005829 24.823425,3.0082397 24.594055,1.0175476 C22.80249,1.0870667 20.63208,2.1565247 19.345062,3.5922546 C18.192322,4.8641357 17.183044,6.897217 17.455719,8.848206 C19.453613,8.995636 "/>
</svg>