<svg xmlns="http://www.w3.org/2000/svg" width="474.61" height="133.77" viewBox="0 0 474.61 133.77">
	<style type="text/css">
		.st0{fill:#3cd072;}
	</style>
	<path class="st0" d="M402.51,54.16C400.92,54.16 399.3,54.39 397.67,54.83C395.9,55.32 394.29,56.14 392.89,57.27C391.48,58.42 390.34,59.86 389.48,61.58C388.61,63.33 388.17,65.46 388.17,67.92L388.17,80.18C388.17,82.61 388.57,84.73 389.37,86.49C390.19,88.29 391.33,89.79 392.77,90.96C394.16,92.09 395.74,92.91 397.46,93.39C399.05,93.84 400.75,94.07 402.51,94.07C404.12,94.07 405.72,93.84 407.28,93.38C408.94,92.9 410.49,92.08 411.88,90.96C413.3,89.8 414.45,88.32 415.31,86.55C416.17,84.77 416.6,82.63 416.6,80.18L416.6,67.92C416.6,65.46 416.16,63.33 415.3,61.58C414.44,59.87 413.29,58.42 411.88,57.28C410.5,56.15 408.95,55.33 407.28,54.85C405.72,54.39 404.12,54.16 402.51,54.16M402.39,102.65C399.19,102.65 396.07,102.23 393.1,101.39C390.23,100.58 387.64,99.33 385.41,97.69C383.25,96.1 381.51,94.07 380.24,91.66C378.98,89.28 378.34,86.4 378.34,83.09L378.34,65.26C378.34,61.96 378.99,59.09 380.28,56.72C381.6,54.3 383.37,52.26 385.53,50.66C387.77,49.01 390.39,47.75 393.32,46.89C396.31,46.02 399.41,45.58 402.51,45.58C405.87,45.58 409.09,46.02 412.08,46.89C414.98,47.74 417.53,49.01 419.68,50.68C421.76,52.3 423.42,54.36 424.62,56.81C425.83,59.24 426.44,62.17 426.44,65.51L426.44,83.09C426.44,86.38 425.78,89.26 424.5,91.63C423.18,94.05 421.41,96.09 419.24,97.69C417.01,99.33 414.42,100.58 411.54,101.39C408.58,102.23 405.5,102.65 402.39,102.65"/>
	<path class="st0" d="M77.38,102.65C74.02,102.65 71.38,102.29 69.52,101.6C67.85,100.96 66.57,100.09 65.72,99C64.82,97.86 64.26,96.52 64.01,94.9C63.71,92.95 63.55,90.69 63.55,88.2L63.55,25.31L63.56,24.97C63.61,23.54 64.05,20.21 67.27,20.21C70.03,20.21 73.39,22.48 73.39,25.13L73.38,25.29L73.38,85.09C73.38,86.77 73.51,88.11 73.78,89.18C74.15,90.68 74.98,91.93 76.16,92.8C77.18,93.55 78.49,94.04 80.04,94.28C80.82,94.4 81.76,94.48 82.89,94.53L83.09,94.53L83.28,94.52C83.41,94.51 83.54,94.5 83.66,94.5C83.83,94.5 84,94.51 84.16,94.54L84.27,94.55C86.15,94.85 87.51,96.44 87.51,98.34C87.51,100.39 85.91,102.07 83.86,102.18L83.71,102.18L83.57,102.21C82.47,102.37 81.56,102.48 80.79,102.53C79.62,102.61 78.47,102.65 77.38,102.65"/>
	<path class="st0" d="M110.12,102.9C107.09,102.9 104.5,102.41 102.42,101.43C100.35,100.47 98.72,99.18 97.43,97.48C96.1,95.73 95.1,93.61 94.45,91.17C93.77,88.61 93.43,85.72 93.43,82.59L93.43,51.64C93.43,51.27 93.41,50.03 93.41,49.71C93.41,47 95.62,44.79 98.34,44.79C101.03,44.79 103.23,46.98 103.25,49.68L103.26,50.32L103.26,81.47C103.26,85.91 104.53,89.16 107.04,91.12C109.33,92.91 111.85,93.82 114.53,93.82C116.82,93.82 119.29,93.31 121.88,92.3C124.36,91.35 127.21,89.8 130.59,87.59L131.94,86.7L131.94,50.47L131.93,50.29C131.92,50.22 131.93,50.12 131.93,50.01L131.93,49.67C131.93,46.94 134.08,44.79 136.81,44.79C139.53,44.79 141.75,46.96 141.78,49.64L141.78,98.43C141.78,100.8 139.85,102.73 137.48,102.73C135.34,102.73 133.18,101.39 133.18,98.83L133.18,93.18L127.32,97.14C123.15,99.69 119.69,101.29 117.04,101.92C114.28,102.57 111.96,102.9 110.12,102.9"/>
	<path class="st0" d="M230.76,133.77C229.6,133.77 228.51,133.31 227.7,132.48C226.57,131.32 226.21,129.65 226.74,128.11C226.82,127.86 226.87,127.69 226.95,127.52L246.93,82.74C247.61,81.21 249.14,80.21 250.83,80.21C251.42,80.21 252.01,80.34 252.56,80.59C254.71,81.54 255.67,84.07 254.72,86.22L249.97,96.86L254.8,100.23L288.69,67.33L222.7,67.27C220.92,67.26 219.37,66.2 218.73,64.55C218.08,62.9 218.51,61.06 219.81,59.86L283.73,1.12C284.52,0.39 285.55,0 286.62,0C287.52,0 288.38,0.27 289.11,0.8C290.74,1.97 291.33,4.16 290.51,5.99L273.77,43.52C273.08,45.05 271.55,46.04 269.87,46.04C269.27,46.04 268.69,45.92 268.14,45.67C265.99,44.72 265.03,42.19 265.98,40.04L268.41,34.59L263.64,31.16L233.63,58.75L299.2,58.81C300.94,58.81 302.49,59.86 303.15,61.47C303.8,63.09 303.42,64.92 302.16,66.13L233.73,132.57C232.93,133.35 231.87,133.77 230.76,133.77"/>
	<path class="st0" d="M343.27,93.82C346.21,93.82 348.8,92.92 350.99,91.14C353.47,89.13 354.72,85.86 354.72,81.43L354.72,66.67C354.72,62.13 353.65,58.99 351.44,57.08C349.39,55.31 346.88,54.41 343.99,54.41C342.77,54.41 341.42,54.59 339.98,54.93C338.65,55.26 337.25,55.7 335.83,56.23C334.39,56.77 332.99,57.39 331.68,58.05C330.3,58.74 329,59.51 327.82,60.33L326.53,61.22L326.53,89.34L328.25,90.15C331.26,91.57 333.95,92.55 336.24,93.06C338.49,93.56 340.71,93.81 342.82,93.82C342.97,93.82 343.12,93.82 343.27,93.82M321.63,127.7C318.91,127.7 316.7,125.49 316.7,122.78L316.7,48C316.7,45.61 318.64,43.68 321.02,43.68C325.21,43.68 326.24,46.63 326.47,48.4C326.48,48.48 326.94,54.12 326.94,54.12L331.1,51.56C334.37,49.56 337.46,48.08 340.3,47.17C343.06,46.28 345.4,45.83 347.23,45.83C353.08,45.83 357.37,47.32 360.34,50.4C363.3,53.46 364.8,58.5 364.8,65.39L364.8,83.46C364.8,89.48 363.25,94.15 360.07,97.74C356.98,101.21 352.42,102.9 346.11,102.9C344.11,102.9 341.67,102.7 338.86,102.3C336.27,101.94 333.6,101.04 330.94,99.63L326.53,97.3L326.53,120.72L326.55,122.78C326.55,125.49 324.34,127.7 321.63,127.7"/>
	<path class="st0" d="M29.57,93.82C32.5,93.82 35.1,92.92 37.28,91.14C39.76,89.13 41.01,85.86 41.01,81.43L41.01,66.67C41.01,62.13 39.94,58.99 37.73,57.08C35.68,55.31 33.17,54.41 30.28,54.41C29.06,54.41 27.71,54.59 26.28,54.93C24.94,55.26 23.54,55.7 22.12,56.23C20.68,56.77 19.28,57.39 17.97,58.05C16.59,58.74 15.29,59.51 14.11,60.33L12.83,61.22L12.83,89.34L14.54,90.15C17.55,91.57 20.24,92.55 22.53,93.06C24.78,93.56 27,93.81 29.11,93.82C29.26,93.82 29.41,93.82 29.57,93.82M7.92,127.7C5.2,127.7 3,125.49 3,122.78L3,48C3,45.61 4.93,43.68 7.32,43.68C11.5,43.68 12.53,46.63 12.77,48.4C12.77,48.48 13.23,54.12 13.23,54.12L17.39,51.56C20.66,49.56 23.75,48.08 26.59,47.17C29.35,46.28 31.69,45.83 33.52,45.83C39.38,45.83 43.66,47.32 46.63,50.4C49.59,53.46 51.09,58.5 51.09,65.39L51.09,83.46C51.09,89.48 49.54,94.15 46.36,97.74C43.27,101.21 38.71,102.9 32.4,102.9C30.4,102.9 27.96,102.7 25.15,102.3C22.56,101.94 19.89,101.04 17.23,99.63L12.83,97.3L12.83,120.72L12.84,122.78C12.84,125.49 10.63,127.7 7.92,127.7"/>
	<path class="st0" d="M174.47,54.54C171.52,54.54 168.95,55.54 166.83,57.53C164.67,59.57 163.57,62.76 163.57,67.01L163.57,80.6C163.57,85.01 164.63,88.12 166.8,90.1C168.87,91.99 171.45,92.94 174.47,92.94C176.84,92.94 179.5,92.37 182.39,91.24C185.1,90.18 187.82,88.8 190.48,87.12L191.88,86.24L191.88,61.49L190.64,60.59C188.27,58.87 185.6,57.43 182.7,56.3C179.69,55.13 176.92,54.54 174.47,54.54M176.36,127.7C174.53,127.7 172.6,127.56 170.61,127.29C168.69,127.03 166.73,126.55 164.79,125.87C162.85,125.2 160.92,124.27 159.04,123.11C157.36,122.06 155.74,120.72 154.22,119.13L154.07,118.97L153.9,118.83C152.83,118 152.22,116.75 152.22,115.4C152.22,113 154.18,111.05 156.58,111.05C157.76,111.05 158.87,111.52 159.7,112.37C160.89,113.72 162.25,114.85 163.76,115.72C165.23,116.58 166.79,117.26 168.38,117.74C169.87,118.19 171.31,118.54 172.69,118.77C174.11,119 175.33,119.12 176.42,119.12C178.31,119.12 180.16,118.9 181.93,118.47C183.86,118 185.59,117.19 187.05,116.06C188.52,114.91 189.7,113.45 190.57,111.73C191.44,109.98 191.88,107.85 191.88,105.4L191.88,94.16L187.36,96.83C183.97,98.83 180.85,100.19 178.08,100.86C175.25,101.55 172.85,101.9 170.93,101.9C164.93,101.9 160.7,100.28 157.99,96.96C155.17,93.5 153.74,88.71 153.74,82.72L153.74,65.39C153.74,58.9 155.31,53.92 158.42,50.61C161.51,47.31 165.77,45.7 171.43,45.7C173.3,45.7 175.61,46.1 178.32,46.89C181.03,47.68 184.05,49.1 187.31,51.11L191,53.4L192.09,47.77C192.39,45.78 194.53,43.68 197.93,43.68C199.97,43.68 201.67,45.34 201.71,47.38L201.71,47.76L201.71,108.39C201.71,111.66 200.99,114.4 199.5,116.76C197.95,119.21 195.96,121.26 193.59,122.85C191.15,124.48 188.38,125.71 185.37,126.49C182.27,127.29 179.24,127.7 176.36,127.7"/>
	<path class="st0" d="M456.54,102.77C452.95,102.77 449.98,102.3 447.72,101.38C445.59,100.51 443.91,99.29 442.74,97.77C441.51,96.18 440.64,94.24 440.15,91.99C439.62,89.52 439.35,86.78 439.35,83.84L439.35,44.07C439.35,42.3 440.55,37.48 441.6,33.8L441.64,33.8L442.27,31.61C442.58,30.5 443.54,27.91 445.77,27.91C447.53,27.91 449.02,29.29 449.16,31.04L449.18,31.26L449.18,46.45L468.25,46.45C470.14,46.45 471.67,47.99 471.67,49.87C471.67,51.76 470.14,53.29 468.25,53.29L449.18,53.29L449.18,81.88C449.18,85.35 449.78,88.07 451.01,90.21C452.53,92.85 455.65,94.19 460.28,94.19C461.59,94.19 463.07,94.08 464.68,93.85C465.96,93.67 467.38,93.39 468.92,93L469.11,92.96L469.29,92.88C469.75,92.7 470.23,92.61 470.72,92.61C472.86,92.61 474.61,94.35 474.61,96.5C474.61,98.34 473.3,99.95 471.49,100.31L468.51,100.92L468.61,101.38C466.95,101.85 465.25,102.17 463.52,102.35C460.76,102.63 458.41,102.77 456.54,102.77"/>
</svg>