<svg xmlns="http://www.w3.org/2000/svg" width="49.25" height="49.24" viewBox="0 0 49.25 49.24">
	<style type="text/css">
		.st0{fill:#ffffff;}
	</style>
	<path class="st0" d="M31.14,24.52L26.87,24.52L26.87,39.72L20.55,39.72L20.55,24.52L17.55,24.52L17.55,19.15L20.55,19.15L20.55,15.67C20.55,13.18 21.74,9.29 26.93,9.29L31.61,9.31L31.61,14.52L28.21,14.52C27.66,14.52 26.87,14.8 26.87,15.99L26.87,19.15L31.69,19.15ZM24.62,0C11.02,0 0,11.02 0,24.62C0,38.22 11.02,49.24 24.62,49.24C38.22,49.24 49.24,38.22 49.24,24.62C49.24,11.02 38.22,0 24.62,0"/>
</svg>