<svg xmlns="http://www.w3.org/2000/svg" width="49.24" height="49.24" viewBox="0 0 49.24 49.24">
	<style type="text/css">
		.st0{fill:#ffffff;}
	</style>
	<path class="st0" d="M37.03,19.66C37.04,19.92 37.04,20.19 37.04,20.46C37.04,28.66 30.8,38.12 19.39,38.12C15.88,38.12 12.62,37.09 9.87,35.33C10.36,35.38 10.85,35.41 11.35,35.41C14.26,35.41 16.94,34.42 19.06,32.76C16.35,32.71 14.05,30.91 13.26,28.45C13.64,28.52 14.03,28.56 14.43,28.56C15,28.56 15.55,28.48 16.07,28.34C13.23,27.77 11.09,25.26 11.09,22.26L11.09,22.18C11.93,22.64 12.88,22.92 13.9,22.96C12.24,21.84 11.14,19.94 11.14,17.79C11.14,16.65 11.45,15.59 11.98,14.67C15.04,18.42 19.61,20.89 24.77,21.15C24.67,20.7 24.61,20.22 24.61,19.74C24.61,16.31 27.39,13.53 30.82,13.53C32.6,13.53 34.21,14.29 35.34,15.49C36.76,15.22 38.09,14.7 39.29,13.99C38.82,15.44 37.84,16.65 36.56,17.42C37.81,17.27 39.01,16.94 40.12,16.44C39.29,17.69 38.24,18.78 37.03,19.66M24.62,0C11.02,0 0,11.02 0,24.62C0,38.22 11.02,49.24 24.62,49.24C38.22,49.24 49.24,38.22 49.24,24.62C49.24,11.02 38.22,0 24.62,0"/>
</svg>