<svg xmlns="http://www.w3.org/2000/svg" width="48" height="48" viewBox="0 0 48 48">
	<style type="text/css">
		.st0{fill:#ffffff;}
	</style>
	<path class="st0" d="M24,0C10.74,0 0,10.74 0,24C0,37.25 10.74,48 24,48C37.25,48 48,37.25 48,24C48,10.74 37.25,0 24,0M40.88,17.04C40.07,18.42 39.31,19.83 38.43,21.17C37.47,22.62 36.36,23.98 35.37,25.42C34.8,26.26 34.9,26.81 35.62,27.54C36.4,28.34 37.21,29.11 38,29.9C39.13,31.04 40.22,32.22 40.88,33.72C41.4,35.17 39.9,35.15 39.23,35.15C37.67,35.17 36.11,35.16 34.54,35.15C34,35.15 33.37,35.18 32.93,34.91C32.08,34.38 31.29,33.72 30.54,33.04C29.86,32.43 29.33,31.67 28.65,31.07C27.56,30.09 26.74,30.32 26.32,31.71C26.1,32.46 26.04,33.27 25.95,34.05C25.86,34.72 25.48,35.09 24.85,35.11C23.57,35.14 22.27,35.24 21.01,35.06C17.82,34.6 15.25,32.9 13.19,30.53C11.8,28.94 10.54,27.19 9.48,25.37C7.87,22.56 6.48,19.63 4.99,16.76C4.93,16.58 4.47,15.76 6.4,15.76C7.87,15.76 9.34,15.79 10.81,15.76C11.73,15.74 12.32,16.05 12.72,16.9C13.57,18.72 14.45,20.52 15.42,22.27C15.86,23.07 16.49,23.79 17.14,24.45C17.8,25.11 18.48,24.89 18.75,23.99C19.21,22.37 19.22,20.73 19.07,19.06C18.94,17.65 18.67,16.39 16.85,16.23C17.23,15.5 17.76,15.17 18.43,15.06C20.5,14.69 22.57,14.67 24.63,15.03C25.59,15.2 25.93,15.63 26.01,16.61C26.04,16.95 26.04,17.31 26.03,17.65C26,19.22 25.93,20.78 25.93,22.35C25.94,22.94 26.01,23.56 26.19,24.13C26.42,24.84 26.98,24.94 27.55,24.45C27.87,24.17 28.17,23.87 28.43,23.55C30.06,21.48 31.28,19.18 32.25,16.75C32.53,16.05 32.95,15.75 33.73,15.75L39.4,15.75C41.92,15.75 41,16.7 40.88,17.04"/>
</svg>